<svg xmlns="http://www.w3.org/2000/svg" xmlns:xlink="http://www.w3.org/1999/xlink" width="2000" zoomAndPan="magnify" viewBox="0 0 1500 1499.999933" height="2000" preserveAspectRatio="xMidYMid meet" version="1.0"><defs><g/><clipPath id="8765a30e64"><path d="M 0.640625 1 L 1306 1 L 1306 417.761719 L 0.640625 417.761719 Z M 0.640625 1 " clip-rule="nonzero"/></clipPath><clipPath id="aa03b6e44d"><rect x="0" width="1306" y="0" height="417"/></clipPath><clipPath id="c714f40324"><path d="M 1318 0.160156 L 1401.039062 0.160156 L 1401.039062 107 L 1318 107 Z M 1318 0.160156 " clip-rule="nonzero"/></clipPath><clipPath id="49e30f7a48"><rect x="0" width="84" y="0" height="107"/></clipPath><clipPath id="c53404672a"><rect x="0" width="1402" y="0" height="418"/></clipPath></defs><path fill="#ffffff" d="M 749.996094 85 L 555.808594 526.875 L 597.417969 574.429688 L 748.015625 241.539062 L 833.21875 427.800781 L 878.792969 388.167969 Z M 749.996094 85 " fill-opacity="1" fill-rule="nonzero"/><path fill="#ffffff" d="M 749.996094 394.113281 L 646.957031 621.988281 L 672.714844 612.078125 L 787.644531 485.261719 Z M 749.996094 394.113281 " fill-opacity="1" fill-rule="nonzero"/><path fill="#4f46e5" d="M 1134.40625 243.519531 L 906.535156 281.167969 L 964 352.5 L 658.847656 679.449219 L 537.972656 568.484375 L 353.695312 984.601562 L 539.957031 758.710938 L 656.863281 863.730469 L 1055.148438 437.707031 L 1116.574219 493.1875 Z M 1134.40625 243.519531 " fill-opacity="1" fill-rule="nonzero"/><path fill="#ffffff" d="M 965.980469 584.339844 L 926.347656 635.855469 L 1055.148438 935.066406 L 985.792969 933.082031 L 874.832031 683.414062 L 833.21875 728.988281 L 954.089844 996.492188 L 1146.296875 994.511719 Z M 965.980469 584.339844 " fill-opacity="1" fill-rule="nonzero"/><path fill="#ffffff" d="M 777.738281 788.433594 L 720.273438 849.859375 L 722.253906 996.492188 L 777.738281 994.511719 Z M 777.738281 788.433594 " fill-opacity="1" fill-rule="nonzero"/><g transform="matrix(1, 0, 0, 1, 56, 962)"><g clip-path="url(#c53404672a)"><g clip-path="url(#8765a30e64)"><g transform="matrix(1, 0, 0, 1, 0, 1)"><g clip-path="url(#aa03b6e44d)"><g fill="#ffffff" fill-opacity="1"><g transform="translate(0.820296, 312.451218)"><g><path d="M 149.09375 -34.15625 L 74.84375 -34.15625 L 63.5625 0 L 2.375 0 L 78.703125 -209.390625 L 145.828125 -209.390625 L 221.859375 0 L 160.375 0 Z M 134.546875 -78.703125 L 111.96875 -146.421875 L 89.6875 -78.703125 Z M 134.546875 -78.703125 "/></g></g></g><g fill="#ffffff" fill-opacity="1"><g transform="translate(208.428048, 312.451218)"><g><path d="M 74.84375 -219.78125 L 74.84375 0 L 16.625 0 L 16.625 -219.78125 Z M 74.84375 -219.78125 "/></g></g></g><g fill="#ffffff" fill-opacity="1"><g transform="translate(283.273661, 312.451218)"><g><path d="M 46.03125 -182.0625 C 35.738281 -182.0625 27.472656 -184.878906 21.234375 -190.515625 C 14.992188 -196.160156 11.875 -203.242188 11.875 -211.765625 C 11.875 -220.472656 14.992188 -227.695312 21.234375 -233.4375 C 27.472656 -239.1875 35.738281 -242.0625 46.03125 -242.0625 C 56.132812 -242.0625 64.300781 -239.1875 70.53125 -233.4375 C 76.769531 -227.695312 79.890625 -220.472656 79.890625 -211.765625 C 79.890625 -203.242188 76.769531 -196.160156 70.53125 -190.515625 C 64.300781 -184.878906 56.132812 -182.0625 46.03125 -182.0625 Z M 74.84375 -166.609375 L 74.84375 0 L 16.625 0 L 16.625 -166.609375 Z M 74.84375 -166.609375 "/></g></g></g><g fill="#ffffff" fill-opacity="1"><g transform="translate(358.119274, 312.451218)"><g><path d="M 78.109375 -168.703125 C 89.398438 -168.703125 99.25 -166.421875 107.65625 -161.859375 C 116.070312 -157.304688 122.554688 -151.171875 127.109375 -143.453125 L 127.109375 -166.609375 L 185.328125 -166.609375 L 185.328125 -1.78125 C 185.328125 13.863281 182.359375 27.972656 176.421875 40.546875 C 170.484375 53.117188 161.222656 63.164062 148.640625 70.6875 C 136.066406 78.207031 120.179688 81.96875 100.984375 81.96875 C 75.242188 81.96875 54.648438 75.925781 39.203125 63.84375 C 23.753906 51.769531 14.941406 35.335938 12.765625 14.546875 L 70.09375 14.546875 C 71.28125 19.898438 74.25 24.0625 79 27.03125 C 83.75 30 89.890625 31.484375 97.421875 31.484375 C 117.210938 31.484375 127.109375 20.394531 127.109375 -1.78125 L 127.109375 -23.171875 C 122.554688 -15.441406 116.070312 -9.300781 107.65625 -4.75 C 99.25 -0.195312 89.398438 2.078125 78.109375 2.078125 C 64.847656 2.078125 52.820312 -1.382812 42.03125 -8.3125 C 31.238281 -15.25 22.722656 -25.203125 16.484375 -38.171875 C 10.242188 -51.140625 7.125 -66.234375 7.125 -83.453125 C 7.125 -100.679688 10.242188 -115.726562 16.484375 -128.59375 C 22.722656 -141.46875 31.238281 -151.367188 42.03125 -158.296875 C 52.820312 -165.234375 64.847656 -168.703125 78.109375 -168.703125 Z M 127.109375 -83.453125 C 127.109375 -94.148438 124.1875 -102.566406 118.34375 -108.703125 C 112.507812 -114.835938 105.335938 -117.90625 96.828125 -117.90625 C 88.109375 -117.90625 80.878906 -114.882812 75.140625 -108.84375 C 69.398438 -102.8125 66.53125 -94.347656 66.53125 -83.453125 C 66.53125 -72.765625 69.398438 -64.300781 75.140625 -58.0625 C 80.878906 -51.820312 88.109375 -48.703125 96.828125 -48.703125 C 105.335938 -48.703125 112.507812 -51.769531 118.34375 -57.90625 C 124.1875 -64.050781 127.109375 -72.566406 127.109375 -83.453125 Z M 127.109375 -83.453125 "/></g></g></g><g fill="#ffffff" fill-opacity="1"><g transform="translate(543.451518, 312.451218)"><g><path d="M 125.625 -168.109375 C 144.832031 -168.109375 160.078125 -161.71875 171.359375 -148.9375 C 182.648438 -136.164062 188.296875 -118.894531 188.296875 -97.125 L 188.296875 0 L 130.09375 0 L 130.09375 -89.390625 C 130.09375 -98.898438 127.613281 -106.375 122.65625 -111.8125 C 117.707031 -117.257812 111.078125 -119.984375 102.765625 -119.984375 C 94.046875 -119.984375 87.210938 -117.257812 82.265625 -111.8125 C 77.316406 -106.375 74.84375 -98.898438 74.84375 -89.390625 L 74.84375 0 L 16.625 0 L 16.625 -166.609375 L 74.84375 -166.609375 L 74.84375 -142.859375 C 79.988281 -150.378906 86.914062 -156.46875 95.625 -161.125 C 104.34375 -165.78125 114.34375 -168.109375 125.625 -168.109375 Z M 125.625 -168.109375 "/></g></g></g><g fill="#4f46e5" fill-opacity="1"><g transform="translate(730.570233, 312.451218)"><g><path d="M 122.65625 0 L 81.078125 -77.21875 L 74.84375 -77.21875 L 74.84375 0 L 16.625 0 L 16.625 -209.390625 L 108.40625 -209.390625 C 125.238281 -209.390625 139.492188 -206.46875 151.171875 -200.625 C 162.859375 -194.78125 171.671875 -186.757812 177.609375 -176.5625 C 183.546875 -166.363281 186.515625 -154.929688 186.515625 -142.265625 C 186.515625 -128.003906 182.601562 -115.476562 174.78125 -104.6875 C 166.957031 -93.894531 155.523438 -86.222656 140.484375 -81.671875 L 187.703125 0 Z M 74.84375 -117.015625 L 103.65625 -117.015625 C 111.570312 -117.015625 117.507812 -118.894531 121.46875 -122.65625 C 125.425781 -126.414062 127.40625 -131.863281 127.40625 -139 C 127.40625 -145.726562 125.375 -151.019531 121.3125 -154.875 C 117.257812 -158.738281 111.375 -160.671875 103.65625 -160.671875 L 74.84375 -160.671875 Z M 74.84375 -117.015625 "/></g></g></g><g fill="#4f46e5" fill-opacity="1"><g transform="translate(910.259327, 312.451218)"><g><path d="M 74.84375 -209.390625 L 74.84375 0 L 16.625 0 L 16.625 -209.390625 Z M 74.84375 -209.390625 "/></g></g></g><g fill="#4f46e5" fill-opacity="1"><g transform="translate(985.10494, 312.451218)"><g><path d="M 95.640625 2.078125 C 71.285156 2.078125 51.285156 -3.710938 35.640625 -15.296875 C 19.992188 -26.878906 11.578125 -43.460938 10.390625 -65.046875 L 72.46875 -65.046875 C 73.0625 -57.710938 75.238281 -52.363281 79 -49 C 82.757812 -45.632812 87.613281 -43.953125 93.5625 -43.953125 C 98.90625 -43.953125 103.304688 -45.285156 106.765625 -47.953125 C 110.234375 -50.628906 111.96875 -54.347656 111.96875 -59.109375 C 111.96875 -65.242188 109.097656 -69.992188 103.359375 -73.359375 C 97.617188 -76.722656 88.3125 -80.484375 75.4375 -84.640625 C 61.769531 -89.191406 50.726562 -93.597656 42.3125 -97.859375 C 33.90625 -102.117188 26.582031 -108.351562 20.34375 -116.5625 C 14.101562 -124.78125 10.984375 -135.523438 10.984375 -148.796875 C 10.984375 -162.265625 14.347656 -173.796875 21.078125 -183.390625 C 27.816406 -192.992188 37.125 -200.269531 49 -205.21875 C 60.882812 -210.175781 74.347656 -212.65625 89.390625 -212.65625 C 113.742188 -212.65625 133.195312 -206.960938 147.75 -195.578125 C 162.3125 -184.191406 170.085938 -168.203125 171.078125 -147.609375 L 107.8125 -147.609375 C 107.613281 -153.941406 105.679688 -158.691406 102.015625 -161.859375 C 98.359375 -165.023438 93.65625 -166.609375 87.90625 -166.609375 C 83.550781 -166.609375 79.988281 -165.320312 77.21875 -162.75 C 74.445312 -160.175781 73.0625 -156.515625 73.0625 -151.765625 C 73.0625 -147.804688 74.59375 -144.390625 77.65625 -141.515625 C 80.726562 -138.648438 84.539062 -136.175781 89.09375 -134.09375 C 93.65625 -132.019531 100.390625 -129.394531 109.296875 -126.21875 C 122.554688 -121.664062 133.492188 -117.160156 142.109375 -112.703125 C 150.722656 -108.253906 158.148438 -102.019531 164.390625 -94 C 170.628906 -85.976562 173.75 -75.832031 173.75 -63.5625 C 173.75 -51.082031 170.628906 -39.890625 164.390625 -29.984375 C 158.148438 -20.085938 149.140625 -12.269531 137.359375 -6.53125 C 125.578125 -0.789062 111.671875 2.078125 95.640625 2.078125 Z M 95.640625 2.078125 "/></g></g></g><g fill="#4f46e5" fill-opacity="1"><g transform="translate(1152.616766, 312.451218)"><g><path d="M 74.84375 -162.75 L 74.84375 -128.59375 L 141.671875 -128.59375 L 141.671875 -84.34375 L 74.84375 -84.34375 L 74.84375 -46.625 L 150.578125 -46.625 L 150.578125 0 L 16.625 0 L 16.625 -209.390625 L 150.578125 -209.390625 L 150.578125 -162.75 Z M 74.84375 -162.75 "/></g></g></g></g></g></g><g clip-path="url(#c714f40324)"><g transform="matrix(1, 0, 0, 1, 1318, 0.000000000000113687)"><g clip-path="url(#49e30f7a48)"><g fill="#4f46e5" fill-opacity="1"><g transform="translate(2.199711, 79.860706)"><g><path d="M 72.894531 -39.171875 L 72.894531 -73.941406 L 58.023438 -73.941406 L 53.101562 -51.632812 L 48.179688 -73.941406 L 33.304688 -73.941406 L 33.304688 -39.171875 L 43.359375 -39.171875 C 43.359375 -41.160156 43.152344 -63.15625 43.152344 -63.15625 L 48.910156 -39.171875 L 57.289062 -39.171875 L 63.363281 -63.261719 C 63.363281 -63.261719 62.945312 -41.265625 62.945312 -39.171875 Z M 29.535156 -66.296875 L 29.535156 -73.941406 L 1.570312 -73.941406 L 1.570312 -66.296875 L 10.367188 -66.296875 L 10.367188 -39.171875 L 21.050781 -39.171875 L 21.050781 -66.296875 Z M 29.535156 -66.296875 "/></g></g></g></g></g></g></g></g></svg>