<svg xmlns="http://www.w3.org/2000/svg" xmlns:xlink="http://www.w3.org/1999/xlink" width="2000" zoomAndPan="magnify" viewBox="0 0 1500 1499.999933" height="2000" preserveAspectRatio="xMidYMid meet" version="1.0"><path fill="#221265" d="M 727.476562 86.9375 L 444.953125 729.816406 L 505.496094 799.007812 L 724.59375 314.6875 L 848.554688 585.675781 L 914.863281 528.019531 Z M 727.476562 86.9375 " fill-opacity="1" fill-rule="nonzero"/><path fill="#2a1a5e" d="M 727.476562 536.667969 L 577.566406 868.195312 L 615.042969 853.78125 L 782.25 669.277344 Z M 727.476562 536.667969 " fill-opacity="1" fill-rule="nonzero"/><path fill="#4f46e5" d="M 1286.75 317.570312 L 955.222656 372.34375 L 1038.824219 476.125 L 594.863281 951.800781 L 419.007812 790.359375 L 150.902344 1395.761719 L 421.890625 1067.113281 L 591.980469 1219.90625 L 1171.4375 600.089844 L 1260.804688 680.808594 Z M 1286.75 317.570312 " fill-opacity="1" fill-rule="nonzero"/><path fill="#221265" d="M 1041.707031 813.421875 L 984.050781 888.375 L 1171.4375 1323.6875 L 1070.535156 1320.804688 L 909.097656 957.566406 L 848.554688 1023.871094 L 1024.410156 1413.058594 L 1304.050781 1410.175781 Z M 1041.707031 813.421875 " fill-opacity="1" fill-rule="nonzero"/><path fill="#2a1a5e" d="M 767.835938 1110.355469 L 684.234375 1199.726562 L 687.117188 1413.058594 L 767.835938 1410.175781 Z M 767.835938 1110.355469 " fill-opacity="1" fill-rule="nonzero"/></svg>
